<svg xmlns="http://www.w3.org/2000/svg" xmlns:xlink="http://www.w3.org/1999/xlink" width="1080" zoomAndPan="magnify" viewBox="0 0 810 809.999993" height="1080" preserveAspectRatio="xMidYMid meet" version="1.0"><defs><clipPath id="id1"><path d="M 57.632812 368.109375 L 752.132812 368.109375 L 752.132812 462.941406 L 57.632812 462.941406 Z M 57.632812 368.109375 " clip-rule="nonzero"/></clipPath><clipPath id="id2"><path d="M 750.78125 409.589844 C 740.265625 384.726562 716.027344 368.660156 689.035156 368.660156 C 662.089844 368.660156 637.886719 384.675781 627.339844 409.46875 L 627.296875 409.589844 C 621.679688 422.867188 608.730469 431.449219 594.320312 431.449219 C 579.90625 431.449219 566.957031 422.867188 561.34375 409.589844 C 550.832031 384.726562 526.589844 368.660156 499.601562 368.660156 C 472.65625 368.660156 448.457031 384.675781 437.910156 409.46875 L 437.855469 409.589844 C 432.242188 422.867188 419.296875 431.449219 404.882812 431.449219 C 390.46875 431.449219 377.523438 422.867188 371.910156 409.589844 C 361.394531 384.726562 337.15625 368.660156 310.167969 368.660156 C 283.214844 368.660156 259.011719 384.679688 248.472656 409.472656 L 248.421875 409.589844 C 242.804688 422.867188 229.863281 431.449219 215.449219 431.449219 C 201.03125 431.449219 188.09375 422.867188 182.472656 409.589844 C 171.957031 384.726562 147.722656 368.660156 120.730469 368.660156 C 93.738281 368.660156 69.503906 384.726562 58.988281 409.589844 C 55.625 417.535156 59.34375 426.699219 67.289062 430.0625 C 75.234375 433.417969 84.398438 429.703125 87.757812 421.761719 C 93.371094 408.484375 106.316406 399.902344 120.730469 399.902344 C 135.144531 399.902344 148.089844 408.484375 153.703125 421.761719 C 164.21875 446.621094 188.457031 462.6875 215.449219 462.6875 C 242.390625 462.6875 266.585938 446.683594 277.132812 421.894531 L 277.195312 421.761719 C 282.808594 408.484375 295.753906 399.902344 310.167969 399.902344 C 324.582031 399.902344 337.523438 408.484375 343.140625 421.761719 C 353.65625 446.621094 377.890625 462.6875 404.882812 462.6875 C 431.832031 462.6875 456.023438 446.675781 466.570312 421.886719 L 466.625 421.761719 C 472.246094 408.484375 485.1875 399.902344 499.601562 399.902344 C 514.015625 399.902344 526.960938 408.484375 532.574219 421.761719 C 543.085938 446.621094 567.328125 462.6875 594.320312 462.6875 C 621.265625 462.6875 645.460938 446.675781 656.007812 421.886719 L 656.0625 421.761719 C 661.679688 408.484375 674.617188 399.902344 689.035156 399.902344 C 703.449219 399.902344 716.390625 408.484375 722.015625 421.761719 C 725.371094 429.703125 734.539062 433.417969 742.480469 430.0625 C 750.421875 426.699219 754.140625 417.535156 750.78125 409.589844 Z M 750.78125 409.589844 " clip-rule="nonzero"/></clipPath><clipPath id="id3"><path d="M 750.78125 409.589844 C 740.265625 384.726562 716.027344 368.660156 689.035156 368.660156 C 662.089844 368.660156 637.886719 384.675781 627.339844 409.46875 L 627.296875 409.589844 C 621.679688 422.867188 608.730469 431.449219 594.320312 431.449219 C 579.90625 431.449219 566.957031 422.867188 561.34375 409.589844 C 550.832031 384.726562 526.589844 368.660156 499.601562 368.660156 C 472.65625 368.660156 448.457031 384.675781 437.910156 409.46875 L 437.855469 409.589844 C 432.242188 422.867188 419.296875 431.449219 404.882812 431.449219 C 390.46875 431.449219 377.523438 422.867188 371.910156 409.589844 C 361.394531 384.726562 337.15625 368.660156 310.167969 368.660156 C 283.214844 368.660156 259.011719 384.679688 248.472656 409.472656 L 248.421875 409.589844 C 242.804688 422.867188 229.863281 431.449219 215.449219 431.449219 C 201.03125 431.449219 188.09375 422.867188 182.472656 409.589844 C 171.957031 384.726562 147.722656 368.660156 120.730469 368.660156 C 93.738281 368.660156 69.503906 384.726562 58.988281 409.589844 C 55.625 417.535156 59.34375 426.699219 67.289062 430.0625 C 75.234375 433.417969 84.398438 429.703125 87.757812 421.761719 C 93.371094 408.484375 106.316406 399.902344 120.730469 399.902344 C 135.144531 399.902344 148.089844 408.484375 153.703125 421.761719 C 164.21875 446.621094 188.457031 462.6875 215.449219 462.6875 C 242.390625 462.6875 266.585938 446.683594 277.132812 421.894531 L 277.195312 421.761719 C 282.808594 408.484375 295.753906 399.902344 310.167969 399.902344 C 324.582031 399.902344 337.523438 408.484375 343.140625 421.761719 C 353.65625 446.621094 377.890625 462.6875 404.882812 462.6875 C 431.832031 462.6875 456.023438 446.675781 466.570312 421.886719 L 466.625 421.761719 C 472.246094 408.484375 485.1875 399.902344 499.601562 399.902344 C 514.015625 399.902344 526.960938 408.484375 532.574219 421.761719 C 543.085938 446.621094 567.328125 462.6875 594.320312 462.6875 C 621.265625 462.6875 645.460938 446.675781 656.007812 421.886719 L 656.0625 421.761719 C 661.679688 408.484375 674.617188 399.902344 689.035156 399.902344 C 703.449219 399.902344 716.390625 408.484375 722.015625 421.761719 C 725.371094 429.703125 734.539062 433.417969 742.480469 430.0625 C 750.421875 426.699219 754.140625 417.535156 750.78125 409.589844 " clip-rule="nonzero"/></clipPath><clipPath id="id4"><path d="M 79 477 L 735 477 L 735 680.539062 L 79 680.539062 Z M 79 477 " clip-rule="nonzero"/></clipPath><clipPath id="id5"><path d="M 200 129.289062 L 610 129.289062 L 610 350 L 200 350 Z M 200 129.289062 " clip-rule="nonzero"/></clipPath></defs><g clip-path="url(#id1)"><g clip-path="url(#id2)"><g clip-path="url(#id3)"><path fill="rgb(21.179199%, 63.139343%, 83.139038%)" d="M 55.625 368.660156 L 55.625 462.6875 L 754.140625 462.6875 L 754.140625 368.660156 Z M 55.625 368.660156 " fill-opacity="1" fill-rule="nonzero"/></g></g></g><g clip-path="url(#id4)"><path fill="rgb(21.179199%, 63.139343%, 83.139038%)" d="M 561.34375 627.378906 C 550.832031 602.519531 526.589844 586.449219 499.601562 586.449219 C 472.65625 586.449219 448.457031 602.464844 437.910156 627.257812 L 437.855469 627.378906 C 432.242188 640.652344 419.296875 649.238281 404.882812 649.238281 C 390.46875 649.238281 377.523438 640.664062 371.910156 627.378906 C 361.394531 602.519531 337.15625 586.449219 310.167969 586.449219 C 283.214844 586.449219 259.015625 602.464844 248.472656 627.261719 L 248.421875 627.378906 C 247.15625 630.375 245.484375 633.183594 243.449219 635.738281 C 238.074219 642.476562 239.183594 652.308594 245.929688 657.683594 C 252.675781 663.058594 262.503906 661.949219 267.878906 655.199219 C 271.65625 650.464844 274.769531 645.246094 277.136719 639.6875 L 277.195312 639.550781 C 282.808594 626.273438 295.753906 617.691406 310.167969 617.691406 C 324.582031 617.691406 337.523438 626.273438 343.140625 639.550781 C 353.65625 664.410156 377.890625 680.476562 404.882812 680.476562 C 431.832031 680.476562 456.027344 664.464844 466.570312 639.679688 L 466.625 639.550781 C 472.246094 626.273438 485.1875 617.691406 499.601562 617.691406 C 514.015625 617.691406 526.960938 626.273438 532.574219 639.550781 C 535.007812 645.300781 538.246094 650.699219 542.179688 655.570312 C 547.601562 662.273438 557.441406 663.320312 564.148438 657.898438 C 570.855469 652.472656 571.898438 642.640625 566.472656 635.925781 C 564.367188 633.328125 562.640625 630.449219 561.34375 627.378906 Z M 731.796875 512.082031 C 726.742188 519.066406 716.976562 520.628906 709.984375 515.566406 C 703.875 511.140625 696.628906 508.796875 689.035156 508.796875 C 674.617188 508.796875 661.679688 517.375 656.0625 530.660156 L 656.007812 530.78125 C 645.46875 555.566406 621.265625 571.578125 594.320312 571.578125 C 567.328125 571.578125 543.09375 555.519531 532.574219 530.652344 C 526.960938 517.375 514.015625 508.796875 499.601562 508.796875 C 485.1875 508.796875 472.246094 517.375 466.625 530.660156 L 466.578125 530.773438 C 456.027344 555.566406 431.832031 571.578125 404.882812 571.578125 C 377.890625 571.578125 353.65625 555.519531 343.140625 530.652344 C 337.523438 517.375 324.582031 508.796875 310.167969 508.796875 C 295.753906 508.796875 282.808594 517.375 277.195312 530.660156 L 277.140625 530.773438 C 266.597656 555.566406 242.398438 571.578125 215.449219 571.578125 C 188.457031 571.578125 164.21875 555.519531 153.703125 530.652344 C 148.089844 517.375 135.144531 508.796875 120.730469 508.796875 C 114.363281 508.796875 108.121094 510.484375 102.671875 513.679688 C 95.234375 518.042969 85.664062 515.546875 81.300781 508.101562 C 76.9375 500.660156 79.433594 491.09375 86.875 486.730469 C 97.109375 480.730469 108.816406 477.558594 120.730469 477.558594 C 147.722656 477.558594 171.957031 493.628906 182.472656 518.488281 C 188.09375 531.761719 201.03125 540.347656 215.449219 540.347656 C 229.863281 540.347656 242.804688 531.761719 248.421875 518.488281 L 248.480469 518.351562 C 259.023438 493.566406 283.222656 477.558594 310.167969 477.558594 C 337.15625 477.558594 361.394531 493.628906 371.910156 518.488281 C 377.523438 531.761719 390.46875 540.347656 404.882812 540.347656 C 419.296875 540.347656 432.242188 531.761719 437.855469 518.488281 L 437.910156 518.363281 C 448.449219 493.570312 472.65625 477.558594 499.601562 477.558594 C 526.589844 477.558594 550.832031 493.628906 561.34375 518.488281 C 566.957031 531.761719 579.90625 540.347656 594.320312 540.347656 C 608.730469 540.347656 621.679688 531.761719 627.296875 518.488281 L 627.347656 518.359375 C 637.886719 493.570312 662.089844 477.558594 689.035156 477.558594 C 703.246094 477.558594 716.828125 481.953125 728.308594 490.269531 C 735.296875 495.324219 736.859375 505.09375 731.796875 512.082031 " fill-opacity="1" fill-rule="nonzero"/></g><g clip-path="url(#id5)"><path fill="rgb(98.81897%, 90.589905%, 52.549744%)" d="M 593.375 254.367188 C 583.074219 230.003906 568.324219 208.125 549.539062 189.34375 C 530.761719 170.5625 508.882812 155.8125 484.519531 145.503906 C 459.289062 134.832031 432.492188 129.421875 404.882812 129.421875 C 377.273438 129.421875 350.480469 134.832031 325.246094 145.503906 C 300.886719 155.8125 279.007812 170.5625 260.226562 189.34375 C 241.445312 208.125 226.695312 230.003906 216.390625 254.367188 C 205.71875 279.597656 200.308594 306.394531 200.308594 334.003906 C 200.308594 342.625 207.300781 349.621094 215.925781 349.621094 C 224.554688 349.621094 231.546875 342.625 231.546875 334.003906 C 231.546875 238.421875 309.304688 160.660156 404.882812 160.660156 C 500.464844 160.660156 578.21875 238.421875 578.21875 334.003906 C 578.21875 342.625 585.214844 349.621094 593.835938 349.621094 C 602.46875 349.621094 609.460938 342.625 609.460938 334.003906 C 609.460938 306.394531 604.050781 279.597656 593.375 254.367188 Z M 511.5625 227.324219 C 497.714844 213.464844 481.578125 202.59375 463.617188 194.992188 C 445.003906 187.125 425.242188 183.136719 404.882812 183.136719 C 384.523438 183.136719 364.761719 187.125 346.152344 194.992188 C 328.1875 202.59375 312.054688 213.464844 298.203125 227.324219 C 284.355469 241.171875 273.476562 257.308594 265.878906 275.273438 C 258.007812 293.882812 254.015625 313.640625 254.015625 334.003906 C 254.015625 342.625 261.007812 349.621094 269.632812 349.621094 C 278.257812 349.621094 285.253906 342.625 285.253906 334.003906 C 285.253906 268.039062 338.917969 214.367188 404.882812 214.367188 C 470.847656 214.367188 524.511719 268.039062 524.511719 334.003906 C 524.511719 342.625 531.503906 349.621094 540.132812 349.621094 C 548.757812 349.621094 555.75 342.625 555.75 334.003906 C 555.75 313.640625 551.757812 293.882812 543.894531 275.273438 C 536.292969 257.308594 525.414062 241.171875 511.5625 227.324219 Z M 474.273438 264.613281 C 492.808594 283.144531 503.015625 307.792969 503.015625 334.003906 C 503.015625 342.625 496.019531 349.621094 487.398438 349.621094 C 478.773438 349.621094 471.78125 342.625 471.78125 334.003906 C 471.78125 297.117188 441.769531 267.101562 404.882812 267.101562 C 368 267.101562 337.988281 297.117188 337.988281 334.003906 C 337.988281 342.625 330.996094 349.621094 322.371094 349.621094 C 313.742188 349.621094 306.75 342.625 306.75 334.003906 C 306.75 307.792969 316.957031 283.144531 335.496094 264.613281 C 354.027344 246.078125 378.671875 235.863281 404.882812 235.863281 C 431.09375 235.863281 455.734375 246.078125 474.273438 264.613281 " fill-opacity="1" fill-rule="nonzero"/></g></svg>