<svg xmlns="http://www.w3.org/2000/svg" xmlns:xlink="http://www.w3.org/1999/xlink" width="500" zoomAndPan="magnify" viewBox="0 0 375 374.999991" height="500" preserveAspectRatio="xMidYMid meet" version="1.0"><defs><g><g id="id1"/></g><clipPath id="id2"><path d="M 130 176 L 289 176 L 289 227.230469 L 130 227.230469 Z M 130 176 " clip-rule="nonzero"/></clipPath><clipPath id="id3"><path d="M 83.5 10.480469 L 291.25 10.480469 L 291.25 164 L 83.5 164 Z M 83.5 10.480469 " clip-rule="nonzero"/></clipPath></defs><path fill="rgb(100%, 100%, 100%)" d="M 252.398438 61.441406 L 193.242188 61.441406 C 163.542969 61.441406 137.175781 76.519531 121.402344 99.410156 C 117.800781 104.644531 114.746094 110.292969 112.332031 116.269531 C 109.183594 124.058594 107.132812 132.410156 106.359375 141.109375 C 106.136719 143.65625 106.015625 146.234375 106.015625 148.832031 C 106.015625 164.351562 110.109375 178.96875 117.277344 191.640625 C 113.859375 183.308594 111.980469 174.203125 111.980469 164.679688 C 111.980469 161.488281 112.1875 158.339844 112.597656 155.253906 C 113.558594 148.039062 115.59375 141.160156 118.546875 134.78125 C 121.6875 128.007812 125.851562 121.800781 130.835938 116.355469 C 143.914062 102.101562 162.65625 93.132812 183.382812 93.132812 L 212.339844 93.132812 C 231.160156 93.132812 244.023438 77.398438 252.390625 61.449219 Z M 132.292969 154 C 134.386719 144.496094 138.75 136.785156 145.390625 130.878906 Z M 132.292969 154 " fill-opacity="1" fill-rule="evenodd"/><path fill="rgb(100%, 100%, 100%)" d="M 145.390625 130.878906 C 138.757812 136.785156 134.386719 144.496094 132.292969 154 C 145.519531 167.324219 163.808594 175.613281 183.941406 175.613281 L 252.074219 175.613281 C 243.566406 156.949219 228.515625 145.074219 207.78125 145.074219 L 187.957031 145.074219 C 172.046875 145.074219 157.292969 139.785156 145.390625 130.878906 Z M 145.390625 130.878906 " fill-opacity="1" fill-rule="evenodd"/><g clip-path="url(#id2)"><path fill="rgb(100%, 100%, 100%)" d="M 178.191406 193.585938 C 160.03125 193.585938 143.324219 187.066406 130.261719 176.257812 C 136.679688 205.320312 162.683594 227.230469 193.542969 227.230469 L 288.914062 227.230469 C 280.125 207.367188 260.910156 193.585938 239.089844 193.585938 L 178.183594 193.585938 Z M 178.191406 193.585938 " fill-opacity="1" fill-rule="evenodd"/></g><g clip-path="url(#id3)"><path fill="rgb(100%, 100%, 100%)" d="M 291.042969 10.480469 L 200.574219 10.480469 C 136.300781 10.480469 83.703125 63.167969 83.703125 127.558594 C 83.703125 140.085938 85.695312 152.175781 89.375 163.507812 C 88.082031 157.058594 87.394531 150.386719 87.394531 143.570312 C 87.394531 87.984375 132.792969 42.5 188.273438 42.5 L 247.574219 42.5 C 269.769531 42.5 280.554688 29.550781 291.050781 10.46875 Z M 291.042969 10.480469 " fill-opacity="1" fill-rule="evenodd"/></g><g fill="rgb(100%, 100%, 100%)" fill-opacity="1"><g transform="translate(2.033485, 340.802095)"><g><path d="M 40.90625 -43.953125 C 40.351562 -48.085938 39.226562 -51.390625 37.53125 -53.859375 C 35.832031 -56.328125 33.65625 -57.5625 31 -57.5625 C 27.238281 -57.5625 24.242188 -55.785156 22.015625 -52.234375 C 19.796875 -48.691406 18.6875 -43.21875 18.6875 -35.8125 C 18.6875 -26.863281 20.414062 -20.320312 23.875 -16.1875 C 27.332031 -12.0625 31.804688 -10 37.296875 -10 C 39.953125 -10 42.296875 -10.488281 44.328125 -11.46875 C 46.367188 -12.457031 47.820312 -13.632812 48.6875 -15 C 49.425781 -14.4375 50.039062 -13.597656 50.53125 -12.484375 C 51.019531 -11.378906 51.265625 -10.363281 51.265625 -9.4375 C 51.265625 -7.894531 50.476562 -6.289062 48.90625 -4.625 C 47.332031 -2.957031 45.066406 -1.550781 42.109375 -0.40625 C 39.148438 0.726562 35.726562 1.296875 31.84375 1.296875 C 26.40625 1.296875 21.445312 0.03125 16.96875 -2.5 C 12.5 -5.03125 8.9375 -8.851562 6.28125 -13.96875 C 3.632812 -19.09375 2.3125 -25.296875 2.3125 -32.578125 C 2.3125 -39.671875 3.515625 -45.703125 5.921875 -50.671875 C 8.328125 -55.640625 11.703125 -59.367188 16.046875 -61.859375 C 20.398438 -64.359375 25.476562 -65.609375 31.28125 -65.609375 C 32.632812 -65.609375 34.175781 -65.421875 35.90625 -65.046875 C 37.632812 -64.679688 39.144531 -64.191406 40.4375 -63.578125 C 41.363281 -64.015625 42.722656 -64.445312 44.515625 -64.875 C 46.304688 -65.300781 47.695312 -65.546875 48.6875 -65.609375 C 50.46875 -61.234375 51.359375 -54.015625 51.359375 -43.953125 Z M 40.90625 -43.953125 "/></g></g></g><g fill="rgb(100%, 100%, 100%)" fill-opacity="1"><g transform="translate(75.703727, 340.802095)"><g><path d="M 55.4375 -19.53125 C 55.4375 -17.488281 54.941406 -13.859375 53.953125 -8.640625 C 52.960938 -3.429688 52.066406 -0.0546875 51.265625 1.484375 C 50.285156 1.234375 48.992188 0.738281 47.390625 0 L 4.53125 0 C 3.113281 -1.851562 2.40625 -3.796875 2.40625 -5.828125 C 4.5 -5.828125 6.039062 -6.195312 7.03125 -6.9375 C 8.019531 -7.675781 8.515625 -8.910156 8.515625 -10.640625 L 8.515625 -54.046875 C 8.515625 -55.710938 8.035156 -56.914062 7.078125 -57.65625 C 6.117188 -58.394531 4.59375 -58.765625 2.5 -58.765625 C 2.5 -60.804688 3.207031 -62.75 4.625 -64.59375 L 40.53125 -64.59375 C 41.582031 -65.09375 42.800781 -65.476562 44.1875 -65.75 C 45.582031 -66.03125 46.863281 -66.171875 48.03125 -66.171875 C 48.957031 -64.378906 49.957031 -61.910156 51.03125 -58.765625 C 52.113281 -55.617188 52.65625 -53.335938 52.65625 -51.921875 C 51.914062 -51.242188 50.648438 -50.535156 48.859375 -49.796875 C 47.078125 -49.054688 45.535156 -48.5625 44.234375 -48.3125 C 43.429688 -50.59375 42.164062 -52.566406 40.4375 -54.234375 C 38.71875 -55.898438 36.710938 -56.734375 34.421875 -56.734375 L 23.96875 -56.734375 L 23.96875 -37.203125 L 30.640625 -37.203125 C 34.648438 -37.203125 36.65625 -39.453125 36.65625 -43.953125 C 39.425781 -43.953125 41.921875 -43.304688 44.140625 -42.015625 L 44.140625 -24.796875 C 43.160156 -24.179688 42.019531 -23.703125 40.71875 -23.359375 C 39.425781 -23.023438 38.097656 -22.859375 36.734375 -22.859375 C 36.734375 -25.203125 36.175781 -26.957031 35.0625 -28.125 C 33.957031 -29.300781 32.507812 -29.890625 30.71875 -29.890625 L 23.96875 -29.890625 L 23.96875 -8.140625 L 35.171875 -8.140625 C 37.765625 -8.140625 40.015625 -9.234375 41.921875 -11.421875 C 43.835938 -13.617188 45.039062 -16.320312 45.53125 -19.53125 Z M 55.4375 -19.53125 "/></g></g></g><g fill="rgb(100%, 100%, 100%)" fill-opacity="1"><g transform="translate(153.538675, 340.802095)"><g><path d="M 55.4375 -19.53125 C 55.4375 -17.488281 54.941406 -13.859375 53.953125 -8.640625 C 52.960938 -3.429688 52.066406 -0.0546875 51.265625 1.484375 C 50.285156 1.234375 48.992188 0.738281 47.390625 0 L 4.53125 0 C 3.113281 -1.851562 2.40625 -3.796875 2.40625 -5.828125 C 4.5 -5.828125 6.039062 -6.195312 7.03125 -6.9375 C 8.019531 -7.675781 8.515625 -8.910156 8.515625 -10.640625 L 8.515625 -54.046875 C 8.515625 -55.710938 8.035156 -56.914062 7.078125 -57.65625 C 6.117188 -58.394531 4.59375 -58.765625 2.5 -58.765625 C 2.5 -60.804688 3.207031 -62.75 4.625 -64.59375 L 40.53125 -64.59375 C 41.582031 -65.09375 42.800781 -65.476562 44.1875 -65.75 C 45.582031 -66.03125 46.863281 -66.171875 48.03125 -66.171875 C 48.957031 -64.378906 49.957031 -61.910156 51.03125 -58.765625 C 52.113281 -55.617188 52.65625 -53.335938 52.65625 -51.921875 C 51.914062 -51.242188 50.648438 -50.535156 48.859375 -49.796875 C 47.078125 -49.054688 45.535156 -48.5625 44.234375 -48.3125 C 43.429688 -50.59375 42.164062 -52.566406 40.4375 -54.234375 C 38.71875 -55.898438 36.710938 -56.734375 34.421875 -56.734375 L 23.96875 -56.734375 L 23.96875 -37.203125 L 30.640625 -37.203125 C 34.648438 -37.203125 36.65625 -39.453125 36.65625 -43.953125 C 39.425781 -43.953125 41.921875 -43.304688 44.140625 -42.015625 L 44.140625 -24.796875 C 43.160156 -24.179688 42.019531 -23.703125 40.71875 -23.359375 C 39.425781 -23.023438 38.097656 -22.859375 36.734375 -22.859375 C 36.734375 -25.203125 36.175781 -26.957031 35.0625 -28.125 C 33.957031 -29.300781 32.507812 -29.890625 30.71875 -29.890625 L 23.96875 -29.890625 L 23.96875 -8.140625 L 35.171875 -8.140625 C 37.765625 -8.140625 40.015625 -9.234375 41.921875 -11.421875 C 43.835938 -13.617188 45.039062 -16.320312 45.53125 -19.53125 Z M 55.4375 -19.53125 "/></g></g></g><g fill="rgb(100%, 100%, 100%)" fill-opacity="1"><g transform="translate(231.373638, 340.802095)"><g><path d="M 28.78125 0.734375 C 26.4375 0.734375 23.691406 0.644531 20.546875 0.46875 C 13.328125 0.15625 7.957031 0 4.4375 0 C 3.082031 -1.664062 2.40625 -3.609375 2.40625 -5.828125 C 4.5 -5.828125 5.976562 -6.179688 6.84375 -6.890625 C 7.707031 -7.597656 8.140625 -8.816406 8.140625 -10.546875 L 8.140625 -54.046875 C 8.140625 -55.773438 7.707031 -56.992188 6.84375 -57.703125 C 5.976562 -58.410156 4.5 -58.765625 2.40625 -58.765625 C 2.40625 -60.984375 3.082031 -62.925781 4.4375 -64.59375 C 7.894531 -64.59375 13.234375 -64.6875 20.453125 -64.875 C 23.660156 -65 25.851562 -65.0625 27.03125 -65.0625 C 36.707031 -65.0625 43.550781 -63.546875 47.5625 -60.515625 C 51.570312 -57.492188 53.578125 -53.828125 53.578125 -49.515625 C 53.578125 -45.929688 52.664062 -42.921875 50.84375 -40.484375 C 49.03125 -38.046875 46.023438 -35.96875 41.828125 -34.25 C 47.316406 -33.132812 51.234375 -31.375 53.578125 -28.96875 C 55.921875 -26.5625 57.09375 -22.953125 57.09375 -18.140625 C 57.09375 -5.554688 47.65625 0.734375 28.78125 0.734375 Z M 26.1875 -36.46875 C 34.457031 -36.46875 38.59375 -40.109375 38.59375 -47.390625 C 38.59375 -50.835938 37.648438 -53.515625 35.765625 -55.421875 C 33.890625 -57.335938 31.035156 -58.296875 27.203125 -58.296875 C 25.484375 -58.296875 24.222656 -58.175781 23.421875 -57.9375 L 23.421875 -36.65625 C 24.523438 -36.53125 25.445312 -36.46875 26.1875 -36.46875 Z M 27.296875 -6.015625 C 35.941406 -6.015625 40.265625 -9.75 40.265625 -17.21875 C 40.265625 -21.46875 39.179688 -24.625 37.015625 -26.6875 C 34.859375 -28.757812 31.34375 -29.796875 26.46875 -29.796875 L 23.421875 -29.703125 L 23.421875 -6.296875 C 25.078125 -6.109375 26.367188 -6.015625 27.296875 -6.015625 Z M 27.296875 -6.015625 "/></g></g></g><g fill="rgb(100%, 100%, 100%)" fill-opacity="1"><g transform="translate(310.874509, 340.802095)"><g><path d="M 55.53125 -25.265625 C 55.53125 -16.691406 53.507812 -10.132812 49.46875 -5.59375 C 45.425781 -1.0625 39.425781 1.203125 31.46875 1.203125 C 23.445312 1.203125 17.148438 -0.984375 12.578125 -5.359375 C 8.015625 -9.742188 5.734375 -16.070312 5.734375 -24.34375 L 5.734375 -54.140625 C 5.734375 -55.804688 5.300781 -56.992188 4.4375 -57.703125 C 3.570312 -58.410156 2.09375 -58.765625 0 -58.765625 C 0 -61.109375 0.707031 -63.050781 2.125 -64.59375 L 25.265625 -64.59375 C 26.679688 -63.050781 27.390625 -61.109375 27.390625 -58.765625 C 25.296875 -58.765625 23.816406 -58.410156 22.953125 -57.703125 C 22.085938 -56.992188 21.65625 -55.804688 21.65625 -54.140625 L 21.65625 -22.390625 C 21.65625 -17.953125 22.59375 -14.390625 24.46875 -11.703125 C 26.351562 -9.023438 29.238281 -7.6875 33.125 -7.6875 C 37.019531 -7.6875 39.84375 -8.90625 41.59375 -11.34375 C 43.351562 -13.78125 44.234375 -16.972656 44.234375 -20.921875 L 44.234375 -54.140625 C 44.234375 -55.804688 43.722656 -56.992188 42.703125 -57.703125 C 41.691406 -58.410156 40.015625 -58.765625 37.671875 -58.765625 C 37.671875 -61.234375 38.347656 -63.175781 39.703125 -64.59375 L 60.0625 -64.59375 C 61.414062 -63.050781 62.09375 -61.109375 62.09375 -58.765625 C 59.75 -58.765625 58.066406 -58.410156 57.046875 -57.703125 C 56.035156 -56.992188 55.53125 -55.804688 55.53125 -54.140625 Z M 55.53125 -25.265625 "/></g></g></g></svg>